HIERARCHY
ROOT Hips
{
	OFFSET 0.000000 0.000000 0.000000 
	CHANNELS 6 Xposition Yposition Zposition Zrotation Yrotation Xrotation
	JOINT LeftUpLeg
	{
		OFFSET 1.363060 -1.794630 0.839290 
		CHANNELS 3 Zrotation Yrotation Xrotation
		JOINT LeftLeg
		{
			OFFSET 2.448110 -6.726130 0.000000 
			CHANNELS 3 Zrotation Yrotation Xrotation
			JOINT LeftFoot
			{
				OFFSET 2.562200 -7.039590 0.000000 
				CHANNELS 3 Zrotation Yrotation Xrotation
				JOINT LeftToeBase
				{
					OFFSET 0.157640 -0.433110 2.322550 
					CHANNELS 3 Zrotation Yrotation Xrotation
					End Site
					{
						OFFSET 0.000000 0.000000 0.000000 
					}
				}
			}
		}
	}
	JOINT RightUpLeg
	{
		OFFSET -1.305520 -1.794630 0.839290 
		CHANNELS 3 Zrotation Yrotation Xrotation
		JOINT RightLeg
		{
			OFFSET -2.542530 -6.985550 0.000000 
			CHANNELS 3 Zrotation Yrotation Xrotation
			JOINT RightFoot
			{
				OFFSET -2.568260 -7.056230 0.000000 
				CHANNELS 3 Zrotation Yrotation Xrotation
				JOINT RightToeBase
				{
					OFFSET -0.164730 -0.452590 2.363150 
					CHANNELS 3 Zrotation Yrotation Xrotation
					End Site
					{
						OFFSET 0.000000 0.000000 0.000000 
					}
				}
			}
		}
	}
	JOINT Spine
	{
		OFFSET 0.028270 2.035590 -0.193380 
		CHANNELS 3 Zrotation Yrotation Xrotation
		JOINT Spine1
		{
			OFFSET 0.056720 2.048850 -0.042750 
			CHANNELS 3 Zrotation Yrotation Xrotation
			JOINT Neck1
			{
				OFFSET -0.054170 1.746240 0.172020 
				CHANNELS 3 Zrotation Yrotation Xrotation
				JOINT Head
				{
					OFFSET 0.104070 1.761360 -0.123970 
					CHANNELS 3 Zrotation Yrotation Xrotation
					End Site
					{
						OFFSET 0.000000 0.000000 0.000000 
					}
				}
			}
			JOINT LeftArm
			{
				OFFSET 3.362410 1.200890 -0.311210 
				CHANNELS 3 Zrotation Yrotation Xrotation
				JOINT LeftForeArm
				{
					OFFSET 4.983000 -0.000000 -0.000000 
					CHANNELS 3 Zrotation Yrotation Xrotation
					JOINT LeftHand
					{
						OFFSET 3.483560 -0.000000 -0.000000 
						CHANNELS 3 Zrotation Yrotation Xrotation
						JOINT LeftHandIndex1
						{
							OFFSET 0.715260 -0.000000 -0.000000 
							CHANNELS 3 Zrotation Yrotation Xrotation
							End Site
							{
								OFFSET 0.000000 0.000000 0.000000 
							}
						}
					}
				}
			}
			JOINT RightArm
			{
				OFFSET -3.136600 1.374050 -0.404650 
				CHANNELS 3 Zrotation Yrotation Xrotation
				JOINT RightForeArm
				{
					OFFSET -5.241900 -0.000000 -0.000000 
					CHANNELS 3 Zrotation Yrotation Xrotation
					JOINT RightHand
					{
						OFFSET -3.444170 -0.000000 -0.000000 
						CHANNELS 3 Zrotation Yrotation Xrotation
						JOINT RightHandIndex1
						{
							OFFSET -0.622530 -0.000000 -0.000000 
							CHANNELS 3 Zrotation Yrotation Xrotation
							End Site
							{
								OFFSET 0.000000 0.000000 0.000000 
							}
						}
					}
				}
			}
		}
	}
}
MOTION
Frames: 7
Frame Time: 0.041667
-13.633707 17.829665 1.475858 169.397535 86.778937 -176.707658 -11.285995 -12.439877 -14.741155 0.308938 5.654585 17.185426 0.378788 1.692946 -12.082387 0.253300 3.238400 8.943200 25.167684 8.396541 -7.977123 0.202195 -1.706246 9.498945 1.490941 -13.693281 -14.803353 -0.087200 1.904600 -5.242200 0.428487 1.466357 -3.247741 -3.942149 0.861760 6.587609 5.886780 -2.345472 6.555766 0.755400 -1.047400 2.816300 -35.815827 22.667124 101.558402 87.920823 -53.868574 -56.631110 -0.791835 -0.377036 -6.230027 -7.125000 0.000000 0.000000 47.854427 -31.772377 91.628801 -96.515267 54.246604 -59.652616 -0.300979 0.248076 22.621657 7.125000 0.000000 0.000000 
-13.655402 17.837712 1.392440 169.577385 86.836419 -176.545239 -11.581848 -12.343756 -14.345382 0.192904 5.299287 16.209576 0.169824 2.337880 -11.273018 0.069100 1.696300 4.667200 24.893732 8.967380 -8.077382 0.194152 -1.839399 9.815433 1.554987 -14.133199 -15.059704 -0.082600 1.854000 -5.102300 0.428905 1.487574 -3.295517 -3.913043 0.860620 6.405556 5.353358 -2.416958 6.719011 0.525900 -1.088700 2.900500 -35.856251 22.557780 101.616287 87.760438 -53.861976 -56.451680 -0.787582 -0.366414 -6.140299 -7.125000 0.000000 0.000000 47.964949 -31.978225 91.484992 -95.895466 54.411552 -59.062421 -0.178447 0.289891 24.210295 7.125000 0.000000 0.000000 
-13.675874 17.845758 1.305966 170.083356 86.906759 -175.984996 -11.859813 -12.324032 -13.879659 0.063241 4.874093 15.047916 -0.060058 3.076569 -10.372197 0.001200 0.223700 0.614500 24.642664 9.589891 -8.224721 0.192430 -1.952227 10.064277 1.629243 -14.606822 -15.268821 -0.086700 1.899600 -5.228400 0.408231 1.527060 -3.370908 -3.966509 0.869795 6.225163 4.689932 -2.509143 6.781717 0.205800 -1.142900 2.921400 -35.768912 22.454941 101.769761 87.646806 -53.850559 -56.339581 -0.783242 -0.360190 -6.067790 -7.125000 0.000000 0.000000 48.113703 -32.192970 91.490089 -96.203758 54.793761 -58.994046 -0.936992 -0.176981 25.224180 7.125000 0.000000 0.000000 
-13.689625 17.852379 1.218168 170.531144 86.959522 -175.431583 -12.150026 -12.162478 -13.664371 -0.016099 4.564194 14.212170 -0.206997 3.495799 -9.507007 0.043600 -1.347500 -3.705400 24.361273 10.014343 -8.494196 0.183357 -2.074024 10.332819 1.682769 -14.958962 -15.436774 -0.081600 1.842500 -5.070600 0.399401 1.539852 -3.435046 -3.984373 0.863840 6.099546 3.986867 -2.591241 6.837382 -0.132300 -1.193500 2.942300 -35.712539 22.403312 101.865143 87.590093 -53.847983 -56.282909 -0.780319 -0.355887 -6.107009 -7.125000 0.000000 0.000000 48.230262 -32.405649 91.344154 -95.474270 54.991022 -58.300530 -0.944572 0.042299 26.679116 7.125000 0.000000 0.000000 
-13.696041 17.856758 1.128232 170.086443 87.119163 -175.818393 -12.611108 -11.524967 -13.812088 -0.041319 4.424969 13.833999 -0.256871 3.564354 -8.855371 0.076000 -1.777900 -4.892200 23.981501 10.343634 -8.727701 0.162738 -2.211020 10.662119 1.697178 -15.126985 -15.669987 -0.054400 1.504400 -4.137900 0.471016 1.393309 -3.418051 -3.810160 0.779742 6.167710 2.475978 -2.552468 6.925747 -0.829800 -1.207400 3.081900 -36.068427 22.415248 101.441583 87.573289 -53.842111 -56.232107 -0.787376 -0.343740 -6.197472 -7.125000 0.000000 0.000000 47.937422 -32.201655 91.426191 -94.690633 55.191839 -57.595072 -0.933866 0.259267 28.083273 7.125000 0.000000 0.000000 
-13.701745 17.861240 1.036665 169.681604 87.400377 -176.202195 -13.129939 -10.573376 -14.089922 -0.047490 4.367979 13.677584 -0.318738 3.721416 -8.280358 0.242300 -3.167800 -8.746300 23.616287 10.643150 -8.968797 0.127575 -2.381109 11.080723 1.668896 -15.089768 -15.939811 -0.028900 1.097700 -3.017700 0.606030 1.126245 -3.295805 -3.503574 0.642651 6.404797 2.501013 -2.234434 7.162294 -0.766500 -1.061500 3.485900 -36.801638 22.324607 100.359863 87.623274 -53.823842 -56.235666 -0.805544 -0.335648 -6.385420 -7.125000 0.000000 0.000000 47.246471 -31.395513 91.601869 -93.827737 55.403212 -56.859597 -0.902742 0.471043 29.487977 7.125000 0.000000 0.000000 
-13.711014 17.864601 0.946118 169.307849 87.686670 -176.569157 -13.524224 -9.927709 -14.157651 -0.050911 4.285320 13.464094 -0.294065 3.509301 -7.804249 0.290500 -3.466100 -9.579200 23.249988 10.819963 -9.311704 0.080557 -2.575409 11.564012 1.614789 -14.917439 -16.192349 -0.014800 0.786000 -2.160100 0.569364 1.151273 -3.304819 -3.586450 0.658660 6.369855 2.609698 -2.186400 7.328868 -0.706500 -1.031900 3.621000 -36.702115 22.386479 100.224979 87.865102 -53.820554 -56.495188 -0.800339 -0.366654 -6.634706 -7.125000 0.000000 0.000000 47.379999 -31.367956 91.550250 -92.999738 55.617483 -56.034583 -0.832977 0.698155 30.914979 7.125000 0.000000 0.000000 
